# Blender v3.1.2 OBJ File: 'cubo_con_assi.blend'
# www.blender.org
mtllib cubo_con_assi.mtl
o Cube_Cube.001
v -0.823213 -0.823213 -0.823213
v -0.823213 -0.823213 0.823213
v -0.823213 0.823213 -0.823213
v -0.823213 0.823213 0.823213
v 0.823213 -0.823213 -0.823213
v 0.823213 -0.823213 0.823213
v 0.823213 0.823213 -0.823213
v 0.823213 0.823213 0.823213
vt 0.375000 0.000000
vt 0.625000 0.000000
vt 0.625000 0.250000
vt 0.375000 0.250000
vt 0.625000 0.245078
vt 0.625000 0.495078
vt 0.375000 0.495078
vt 0.375000 0.245078
vt 0.620078 0.487696
vt 0.620078 0.737696
vt 0.370078 0.737696
vt 0.370078 0.487696
vt 0.375000 0.750000
vt 0.625000 0.750000
vt 0.625000 1.000000
vt 0.375000 1.000000
vt 0.125000 0.500000
vt 0.375000 0.500000
vt 0.125000 0.750000
vt 0.625000 0.500000
vt 0.875000 0.500000
vt 0.875000 0.750000
vn -1.0000 0.0000 0.0000
vn 0.0000 1.0000 0.0000
vn 1.0000 0.0000 0.0000
vn 0.0000 -1.0000 0.0000
vn 0.0000 0.0000 -1.0000
vn 0.0000 0.0000 1.0000
usemtl Cubo_Assi
s off
f 1/1/1 2/2/1 4/3/1 3/4/1
f 3/5/2 4/6/2 8/7/2 7/8/2
f 7/9/3 8/10/3 6/11/3 5/12/3
f 5/13/4 6/14/4 2/15/4 1/16/4
f 3/17/5 7/18/5 5/13/5 1/19/5
f 8/20/6 4/21/6 2/22/6 6/14/6
